<svg width="439" height="113" viewBox="0 0 439 113" fill="none" xmlns="http://www.w3.org/2000/svg">
<path d="M0.45 69.6C0.45 61.2 2.15 53.85 5.55 47.55C8.95 41.15 13.6 36.2 19.5 32.7C25.5 29.2 32.15 27.45 39.45 27.45C46.65 27.45 52.9 29 58.2 32.1C63.5 35.2 67.45 39.1 70.05 43.8V28.8H83.85V111H70.05V95.7C67.35 100.5 63.3 104.5 57.9 107.7C52.6 110.8 46.4 112.35 39.3 112.35C32 112.35 25.4 110.55 19.5 106.95C13.6 103.35 8.95 98.3 5.55 91.8C2.15 85.3 0.45 77.9 0.45 69.6ZM70.05 69.75C70.05 63.55 68.8 58.15 66.3 53.55C63.8 48.95 60.4 45.45 56.1 43.05C51.9 40.55 47.25 39.3 42.15 39.3C37.05 39.3 32.4 40.5 28.2 42.9C24 45.3 20.65 48.8 18.15 53.4C15.65 58 14.4 63.4 14.4 69.6C14.4 75.9 15.65 81.4 18.15 86.1C20.65 90.7 24 94.25 28.2 96.75C32.4 99.15 37.05 100.35 42.15 100.35C47.25 100.35 51.9 99.15 56.1 96.75C60.4 94.25 63.8 90.7 66.3 86.1C68.8 81.4 70.05 75.95 70.05 69.75ZM120.667 44.1C123.467 39.2 127.567 35.2 132.967 32.1C138.367 29 144.517 27.45 151.417 27.45C158.817 27.45 165.467 29.2 171.367 32.7C177.267 36.2 181.917 41.15 185.317 47.55C188.717 53.85 190.417 61.2 190.417 69.6C190.417 77.9 188.717 85.3 185.317 91.8C181.917 98.3 177.217 103.35 171.217 106.95C165.317 110.55 158.717 112.35 151.417 112.35C144.317 112.35 138.067 110.8 132.667 107.7C127.367 104.6 123.367 100.65 120.667 95.85V111H107.017V-1.43051e-06H120.667V44.1ZM176.467 69.6C176.467 63.4 175.217 58 172.717 53.4C170.217 48.8 166.817 45.3 162.517 42.9C158.317 40.5 153.667 39.3 148.567 39.3C143.567 39.3 138.917 40.55 134.617 43.05C130.417 45.45 127.017 49 124.417 53.7C121.917 58.3 120.667 63.65 120.667 69.75C120.667 75.95 121.917 81.4 124.417 86.1C127.017 90.7 130.417 94.25 134.617 96.75C138.917 99.15 143.567 100.35 148.567 100.35C153.667 100.35 158.317 99.15 162.517 96.75C166.817 94.25 170.217 90.7 172.717 86.1C175.217 81.4 176.467 75.9 176.467 69.6ZM244.334 112.35C236.634 112.35 229.634 110.6 223.334 107.1C217.134 103.6 212.234 98.65 208.634 92.25C205.134 85.75 203.384 78.25 203.384 69.75C203.384 61.35 205.184 53.95 208.784 47.55C212.484 41.05 217.484 36.1 223.784 32.7C230.084 29.2 237.134 27.45 244.934 27.45C252.734 27.45 259.784 29.2 266.084 32.7C272.384 36.1 277.334 41 280.934 47.4C284.634 53.8 286.484 61.25 286.484 69.75C286.484 78.25 284.584 85.75 280.784 92.25C277.084 98.65 272.034 103.6 265.634 107.1C259.234 110.6 252.134 112.35 244.334 112.35ZM244.334 100.35C249.234 100.35 253.834 99.2 258.134 96.9C262.434 94.6 265.884 91.15 268.484 86.55C271.184 81.95 272.534 76.35 272.534 69.75C272.534 63.15 271.234 57.55 268.634 52.95C266.034 48.35 262.634 44.95 258.434 42.75C254.234 40.45 249.684 39.3 244.784 39.3C239.784 39.3 235.184 40.45 230.984 42.75C226.884 44.95 223.584 48.35 221.084 52.95C218.584 57.55 217.334 63.15 217.334 69.75C217.334 76.45 218.534 82.1 220.934 86.7C223.434 91.3 226.734 94.75 230.834 97.05C234.934 99.25 239.434 100.35 244.334 100.35ZM377.432 28.8V111H363.782V98.85C361.182 103.05 357.532 106.35 352.832 108.75C348.232 111.05 343.132 112.2 337.532 112.2C331.132 112.2 325.382 110.9 320.282 108.3C315.182 105.6 311.132 101.6 308.132 96.3C305.232 91 303.782 84.55 303.782 76.95V28.8H317.282V75.15C317.282 83.25 319.332 89.5 323.432 93.9C327.532 98.2 333.132 100.35 340.232 100.35C347.532 100.35 353.282 98.1 357.482 93.6C361.682 89.1 363.782 82.55 363.782 73.95V28.8H377.432ZM417.229 40.05V88.5C417.229 92.5 418.079 95.35 419.779 97.05C421.479 98.65 424.429 99.45 428.629 99.45H438.679V111H426.379C418.779 111 413.079 109.25 409.279 105.75C405.479 102.25 403.579 96.5 403.579 88.5V40.05H392.929V28.8H403.579V8.09999H417.229V28.8H438.679V40.05H417.229Z" fill="#F7F7F7"/>
</svg>
